# xmcd
#
# Track frame offsets:
# 150
# 19728
# 33101
# 51552
# 63793
# 71439
# 85831
# 102856
# 112083
# 122556
# 133227
# 147611
# 156115
# 166369
# 181511
# 192890
# 206796
# 218000
# 243408
#
# Disc length: 3416 seconds
#
# Revision: 0
# Processed by: cddbd v1.4PL0 Copyright (c) Steve Scherf et al.
# Submitted via: Audion 3.0.2 (http://www.panic.com/audion/)
#
DISCID=0f0d5613
DTITLE=April Walker - April's New CountryWestern CD#2
DYEAR=1900
DGENRE=
TTITLE0=Back in the Saddle Again
TTITLE1=Tumblin Tumbleweed
TTITLE2=Don't FenceMe In
TTITLE3=Cowboys Sweetheart
TTITLE4=Cattle Call
TTITLE5=The Cowboy Rides Away
TTITLE6=San Antonio Rose
TTITLE7=Happy Trails
TTITLE8=Ghost Riders in The Sky
TTITLE9=Mug Wamp Song
TTITLE10=Kawliga
TTITLE11=Jambayla
TTITLE12=Wabash Cannonball
TTITLE13=The Old Cowboys
TTITLE14=Get on Your Pony 
TTITLE15=I Love You Arizona
TTITLE16=He Tought Me How to Yodel
TTITLE17=Cool Water
TTITLE18=Home on the Range
EXTD=
EXTT0=
EXTT1=
EXTT2=
EXTT3=
EXTT4=
EXTT5=
EXTT6=
EXTT7=
EXTT8=
EXTT9=
EXTT10=
EXTT11=
EXTT12=
EXTT13=
EXTT14=
EXTT15=
EXTT16=
EXTT17=
EXTT18=
PLAYORDER=
